<svg width="286" height="232" viewBox="0 0 286 232" fill="none" xmlns="http://www.w3.org/2000/svg">
<g filter="url(#filter0_d_33_537)">
<circle cx="29" cy="25" r="25" fill="#CBCAC6"/>
</g>
<g filter="url(#filter1_d_33_537)">
<circle cx="29" cy="83" r="25" fill="#3C88FB"/>
</g>
<g filter="url(#filter2_d_33_537)">
<circle cx="29" cy="141" r="25" fill="#3C88FB"/>
</g>
<g filter="url(#filter3_d_33_537)">
<circle cx="29" cy="199" r="25" fill="#3C88FB"/>
</g>
<g filter="url(#filter4_d_33_537)">
<circle cx="143" cy="25" r="25" fill="#C4C4C4"/>
</g>
<g filter="url(#filter5_d_33_537)">
<circle cx="143" cy="83" r="25" fill="#C4C4C4"/>
</g>
<g filter="url(#filter6_d_33_537)">
<circle cx="143" cy="141" r="25" fill="#3C88FB"/>
</g>
<g filter="url(#filter7_d_33_537)">
<circle cx="143" cy="199" r="25" fill="#3C88FB"/>
</g>
<g filter="url(#filter8_d_33_537)">
<circle cx="86" cy="25" r="25" fill="#F69A10"/>
</g>
<g filter="url(#filter9_d_33_537)">
<circle cx="86" cy="83" r="25" fill="#3C88FB"/>
</g>
<g filter="url(#filter10_d_33_537)">
<circle cx="86" cy="141" r="25" fill="#3C88FB"/>
</g>
<g filter="url(#filter11_d_33_537)">
<circle cx="86" cy="199" r="25" fill="#3C88FB"/>
</g>
<g filter="url(#filter12_d_33_537)">
<circle cx="200" cy="25" r="25" fill="#F69A10"/>
</g>
<g filter="url(#filter13_d_33_537)">
<circle cx="200" cy="83" r="25" fill="#C4C4C4"/>
</g>
<g filter="url(#filter14_d_33_537)">
<circle cx="200" cy="141" r="25" fill="#C4C4C4"/>
</g>
<g filter="url(#filter15_d_33_537)">
<circle cx="200" cy="199" r="25" fill="#C4C4C4"/>
</g>
<g filter="url(#filter16_d_33_537)">
<circle cx="257" cy="25" r="25" fill="#F79A10"/>
</g>
<g filter="url(#filter17_d_33_537)">
<circle cx="257" cy="83" r="25" fill="#C4C4C4"/>
</g>
<g filter="url(#filter18_d_33_537)">
<circle cx="257" cy="141" r="25" fill="#C4C4C4"/>
</g>
<g filter="url(#filter19_d_33_537)">
<circle cx="257" cy="199" r="25" fill="#C4C4C4"/>
</g>
<path d="M19.115 37C19.115 35.85 19.115 34.735 19.115 33.655C19.115 32.575 19.115 31.365 19.115 30.025V22.765C19.115 21.385 19.115 20.14 19.115 19.03C19.115 17.92 19.115 16.78 19.115 15.61C19.955 15.61 20.835 15.61 21.755 15.61C22.685 15.61 23.64 15.61 24.62 15.61C25.61 15.61 26.61 15.61 27.62 15.61C29.25 15.61 30.7 15.845 31.97 16.315C33.24 16.785 34.31 17.475 35.18 18.385C36.06 19.295 36.73 20.41 37.19 21.73C37.65 23.04 37.88 24.54 37.88 26.23C37.88 27.74 37.675 29.15 37.265 30.46C36.865 31.76 36.22 32.9 35.33 33.88C34.45 34.86 33.285 35.625 31.835 36.175C30.385 36.725 28.615 37 26.525 37C25.565 37 24.665 37 23.825 37C22.985 37 22.18 37 21.41 37C20.64 37 19.875 37 19.115 37ZM24.05 33.055H26.51C28.05 33.055 29.27 32.755 30.17 32.155C31.08 31.555 31.735 30.735 32.135 29.695C32.535 28.655 32.735 27.48 32.735 26.17C32.735 25.18 32.615 24.28 32.375 23.47C32.145 22.66 31.785 21.965 31.295 21.385C30.815 20.795 30.2 20.345 29.45 20.035C28.7 19.715 27.805 19.555 26.765 19.555H24.05C24.05 20.225 24.05 20.905 24.05 21.595C24.05 22.275 24.05 23.05 24.05 23.92V28.84C24.05 29.67 24.05 30.42 24.05 31.09C24.05 31.76 24.05 32.415 24.05 33.055Z" fill="white"/>
<path d="M27.91 95.39C27.02 95.39 26.105 95.315 25.165 95.165C24.235 95.025 23.36 94.84 22.54 94.61C21.73 94.38 21.07 94.14 20.56 93.89L20.92 89.555C21.61 89.945 22.33 90.28 23.08 90.56C23.84 90.83 24.595 91.04 25.345 91.19C26.105 91.34 26.83 91.415 27.52 91.415C28.21 91.415 28.81 91.33 29.32 91.16C29.83 90.99 30.225 90.735 30.505 90.395C30.785 90.045 30.925 89.595 30.925 89.045C30.925 88.485 30.74 88.025 30.37 87.665C30.01 87.295 29.49 86.975 28.81 86.705C28.13 86.425 27.32 86.15 26.38 85.88C25.08 85.5 23.97 85.06 23.05 84.56C22.13 84.05 21.425 83.4 20.935 82.61C20.455 81.81 20.215 80.785 20.215 79.535C20.215 78.285 20.49 77.185 21.04 76.235C21.59 75.275 22.42 74.525 23.53 73.985C24.64 73.445 26.045 73.175 27.745 73.175C28.415 73.175 29.085 73.22 29.755 73.31C30.425 73.39 31.075 73.5 31.705 73.64C32.345 73.78 32.935 73.94 33.475 74.12C34.015 74.3 34.485 74.49 34.885 74.69L34.51 79.04C33.87 78.64 33.205 78.305 32.515 78.035C31.825 77.765 31.15 77.56 30.49 77.42C29.83 77.28 29.23 77.21 28.69 77.21C28.08 77.21 27.525 77.29 27.025 77.45C26.535 77.61 26.145 77.855 25.855 78.185C25.565 78.515 25.42 78.93 25.42 79.43C25.42 79.92 25.555 80.335 25.825 80.675C26.105 81.005 26.53 81.3 27.1 81.56C27.68 81.81 28.425 82.07 29.335 82.34C31.045 82.85 32.395 83.385 33.385 83.945C34.375 84.495 35.075 85.16 35.485 85.94C35.905 86.72 36.115 87.7 36.115 88.88C36.115 90.19 35.83 91.335 35.26 92.315C34.69 93.285 33.8 94.04 32.59 94.58C31.38 95.12 29.82 95.39 27.91 95.39Z" fill="white"/>
<path d="M27.91 153.39C27.02 153.39 26.105 153.315 25.165 153.165C24.235 153.025 23.36 152.84 22.54 152.61C21.73 152.38 21.07 152.14 20.56 151.89L20.92 147.555C21.61 147.945 22.33 148.28 23.08 148.56C23.84 148.83 24.595 149.04 25.345 149.19C26.105 149.34 26.83 149.415 27.52 149.415C28.21 149.415 28.81 149.33 29.32 149.16C29.83 148.99 30.225 148.735 30.505 148.395C30.785 148.045 30.925 147.595 30.925 147.045C30.925 146.485 30.74 146.025 30.37 145.665C30.01 145.295 29.49 144.975 28.81 144.705C28.13 144.425 27.32 144.15 26.38 143.88C25.08 143.5 23.97 143.06 23.05 142.56C22.13 142.05 21.425 141.4 20.935 140.61C20.455 139.81 20.215 138.785 20.215 137.535C20.215 136.285 20.49 135.185 21.04 134.235C21.59 133.275 22.42 132.525 23.53 131.985C24.64 131.445 26.045 131.175 27.745 131.175C28.415 131.175 29.085 131.22 29.755 131.31C30.425 131.39 31.075 131.5 31.705 131.64C32.345 131.78 32.935 131.94 33.475 132.12C34.015 132.3 34.485 132.49 34.885 132.69L34.51 137.04C33.87 136.64 33.205 136.305 32.515 136.035C31.825 135.765 31.15 135.56 30.49 135.42C29.83 135.28 29.23 135.21 28.69 135.21C28.08 135.21 27.525 135.29 27.025 135.45C26.535 135.61 26.145 135.855 25.855 136.185C25.565 136.515 25.42 136.93 25.42 137.43C25.42 137.92 25.555 138.335 25.825 138.675C26.105 139.005 26.53 139.3 27.1 139.56C27.68 139.81 28.425 140.07 29.335 140.34C31.045 140.85 32.395 141.385 33.385 141.945C34.375 142.495 35.075 143.16 35.485 143.94C35.905 144.72 36.115 145.7 36.115 146.88C36.115 148.19 35.83 149.335 35.26 150.315C34.69 151.285 33.8 152.04 32.59 152.58C31.38 153.12 29.82 153.39 27.91 153.39Z" fill="white"/>
<path d="M27.91 211.39C27.02 211.39 26.105 211.315 25.165 211.165C24.235 211.025 23.36 210.84 22.54 210.61C21.73 210.38 21.07 210.14 20.56 209.89L20.92 205.555C21.61 205.945 22.33 206.28 23.08 206.56C23.84 206.83 24.595 207.04 25.345 207.19C26.105 207.34 26.83 207.415 27.52 207.415C28.21 207.415 28.81 207.33 29.32 207.16C29.83 206.99 30.225 206.735 30.505 206.395C30.785 206.045 30.925 205.595 30.925 205.045C30.925 204.485 30.74 204.025 30.37 203.665C30.01 203.295 29.49 202.975 28.81 202.705C28.13 202.425 27.32 202.15 26.38 201.88C25.08 201.5 23.97 201.06 23.05 200.56C22.13 200.05 21.425 199.4 20.935 198.61C20.455 197.81 20.215 196.785 20.215 195.535C20.215 194.285 20.49 193.185 21.04 192.235C21.59 191.275 22.42 190.525 23.53 189.985C24.64 189.445 26.045 189.175 27.745 189.175C28.415 189.175 29.085 189.22 29.755 189.31C30.425 189.39 31.075 189.5 31.705 189.64C32.345 189.78 32.935 189.94 33.475 190.12C34.015 190.3 34.485 190.49 34.885 190.69L34.51 195.04C33.87 194.64 33.205 194.305 32.515 194.035C31.825 193.765 31.15 193.56 30.49 193.42C29.83 193.28 29.23 193.21 28.69 193.21C28.08 193.21 27.525 193.29 27.025 193.45C26.535 193.61 26.145 193.855 25.855 194.185C25.565 194.515 25.42 194.93 25.42 195.43C25.42 195.92 25.555 196.335 25.825 196.675C26.105 197.005 26.53 197.3 27.1 197.56C27.68 197.81 28.425 198.07 29.335 198.34C31.045 198.85 32.395 199.385 33.385 199.945C34.375 200.495 35.075 201.16 35.485 201.94C35.905 202.72 36.115 203.7 36.115 204.88C36.115 206.19 35.83 207.335 35.26 208.315C34.69 209.285 33.8 210.04 32.59 210.58C31.38 211.12 29.82 211.39 27.91 211.39Z" fill="white"/>
<path d="M136.1 37C136.1 35.85 136.1 34.735 136.1 33.655C136.1 32.575 136.1 31.365 136.1 30.025V22.765C136.1 21.385 136.1 20.14 136.1 19.03C136.1 17.92 136.1 16.78 136.1 15.61H150.305V19.645C149.385 19.645 148.395 19.645 147.335 19.645C146.285 19.645 145.045 19.645 143.615 19.645H138.575L140.93 16.39C140.93 17.56 140.93 18.7 140.93 19.81C140.93 20.92 140.93 22.165 140.93 23.545V29.245C140.93 30.575 140.93 31.785 140.93 32.875C140.93 33.955 140.93 35.07 140.93 36.22L138.89 32.965H143.975C145.165 32.965 146.29 32.965 147.35 32.965C148.42 32.965 149.45 32.965 150.44 32.965V37H136.1ZM139.805 28.09V24.34H143.72C145.04 24.34 146.17 24.34 147.11 24.34C148.05 24.34 148.955 24.34 149.825 24.34V28.09C148.905 28.09 147.975 28.09 147.035 28.09C146.095 28.09 144.99 28.09 143.72 28.09H139.805Z" fill="white"/>
<path d="M140.205 95C140.205 93.85 140.205 92.735 140.205 91.655C140.205 90.575 140.205 89.365 140.205 88.025V80.765C140.205 79.385 140.205 78.14 140.205 77.03C140.205 75.92 140.205 74.78 140.205 73.61H145.245C145.245 74.78 145.245 75.92 145.245 77.03C145.245 78.14 145.245 79.385 145.245 80.765V88.025C145.245 89.365 145.245 90.575 145.245 91.655C145.245 92.735 145.245 93.85 145.245 95H140.205Z" fill="white"/>
<path d="M132.63 153C133.01 151.85 133.405 150.64 133.815 149.37C134.235 148.1 134.63 146.895 135 145.755L137.415 138.42C137.845 137.09 138.235 135.895 138.585 134.835C138.935 133.765 139.285 132.69 139.635 131.61H145.995C146.355 132.73 146.705 133.82 147.045 134.88C147.395 135.94 147.785 137.12 148.215 138.42L150.6 145.77C150.99 146.95 151.385 148.165 151.785 149.415C152.195 150.665 152.585 151.86 152.955 153H147.855C147.535 151.86 147.205 150.695 146.865 149.505C146.525 148.305 146.2 147.17 145.89 146.1L142.95 135.795H142.59L139.62 145.995C139.3 147.105 138.96 148.27 138.6 149.49C138.25 150.7 137.91 151.87 137.58 153H132.63ZM137.79 148.53L138.315 144.84H147.87L148.29 148.53H137.79Z" fill="white"/>
<path d="M132.63 211C133.01 209.85 133.405 208.64 133.815 207.37C134.235 206.1 134.63 204.895 135 203.755L137.415 196.42C137.845 195.09 138.235 193.895 138.585 192.835C138.935 191.765 139.285 190.69 139.635 189.61H145.995C146.355 190.73 146.705 191.82 147.045 192.88C147.395 193.94 147.785 195.12 148.215 196.42L150.6 203.77C150.99 204.95 151.385 206.165 151.785 207.415C152.195 208.665 152.585 209.86 152.955 211H147.855C147.535 209.86 147.205 208.695 146.865 207.505C146.525 206.305 146.2 205.17 145.89 204.1L142.95 193.795H142.59L139.62 203.995C139.3 205.105 138.96 206.27 138.6 207.49C138.25 208.7 137.91 209.87 137.58 211H132.63ZM137.79 206.53L138.315 202.84H147.87L148.29 206.53H137.79Z" fill="white"/>
<path d="M77.1 37C77.1 35.85 77.1 34.735 77.1 33.655C77.1 32.575 77.1 31.365 77.1 30.025V22.765C77.1 21.385 77.1 20.14 77.1 19.03C77.1 17.92 77.1 16.78 77.1 15.61C77.75 15.61 78.515 15.61 79.395 15.61C80.285 15.61 81.235 15.61 82.245 15.61C83.255 15.61 84.275 15.61 85.305 15.61C87.045 15.61 88.515 15.805 89.715 16.195C90.925 16.575 91.84 17.215 92.46 18.115C93.09 19.015 93.405 20.24 93.405 21.79C93.405 23.02 93.16 24.125 92.67 25.105C92.19 26.085 91.415 26.86 90.345 27.43C89.275 28 87.875 28.285 86.145 28.285L88.05 26.485L90.96 30.775C91.41 31.435 91.89 32.145 92.4 32.905C92.91 33.655 93.405 34.39 93.885 35.11C94.375 35.82 94.805 36.45 95.175 37H89.58C89.04 36.16 88.52 35.355 88.02 34.585C87.52 33.815 87.035 33.065 86.565 32.335L83.1 26.875L86.025 29.11H81.06V25.585H84.63C85.43 25.585 86.1 25.49 86.64 25.3C87.19 25.1 87.605 24.765 87.885 24.295C88.165 23.825 88.305 23.18 88.305 22.36C88.305 21.75 88.215 21.26 88.035 20.89C87.855 20.51 87.61 20.215 87.3 20.005C87 19.795 86.66 19.655 86.28 19.585C85.91 19.515 85.535 19.48 85.155 19.48H78.435L81.945 16.39C81.945 17.6 81.945 18.76 81.945 19.87C81.945 20.97 81.945 22.195 81.945 23.545V30.025C81.945 31.365 81.945 32.575 81.945 33.655C81.945 34.735 81.945 35.85 81.945 37H77.1Z" fill="white"/>
<path d="M72.5 95C72.65 93.88 72.795 92.76 72.935 91.64C73.075 90.52 73.225 89.305 73.385 87.995L74.27 80.825C74.44 79.535 74.595 78.315 74.735 77.165C74.875 76.015 75.02 74.83 75.17 73.61H80.165C80.645 74.83 81.1 76 81.53 77.12C81.97 78.23 82.405 79.335 82.835 80.435L85.385 86.975H85.715L88.19 80.45C88.61 79.34 89.025 78.24 89.435 77.15C89.855 76.06 90.295 74.88 90.755 73.61H95.69C95.84 74.81 95.985 75.985 96.125 77.135C96.275 78.285 96.435 79.52 96.605 80.84L97.52 88.04C97.68 89.34 97.83 90.54 97.97 91.64C98.12 92.74 98.265 93.86 98.405 95H93.71C93.53 93.5 93.355 92.075 93.185 90.725C93.015 89.375 92.86 88.11 92.72 86.93L92.09 81.86H91.76L89.9 87.305C89.45 88.645 88.995 89.975 88.535 91.295C88.085 92.605 87.665 93.84 87.275 95H84.005C83.725 94.25 83.42 93.445 83.09 92.585C82.77 91.725 82.44 90.85 82.1 89.96C81.76 89.06 81.425 88.18 81.095 87.32L79.025 81.86H78.695L78.08 86.9C77.94 88.09 77.785 89.365 77.615 90.725C77.455 92.075 77.285 93.5 77.105 95H72.5Z" fill="white"/>
<path d="M72.5 153C72.65 151.88 72.795 150.76 72.935 149.64C73.075 148.52 73.225 147.305 73.385 145.995L74.27 138.825C74.44 137.535 74.595 136.315 74.735 135.165C74.875 134.015 75.02 132.83 75.17 131.61H80.165C80.645 132.83 81.1 134 81.53 135.12C81.97 136.23 82.405 137.335 82.835 138.435L85.385 144.975H85.715L88.19 138.45C88.61 137.34 89.025 136.24 89.435 135.15C89.855 134.06 90.295 132.88 90.755 131.61H95.69C95.84 132.81 95.985 133.985 96.125 135.135C96.275 136.285 96.435 137.52 96.605 138.84L97.52 146.04C97.68 147.34 97.83 148.54 97.97 149.64C98.12 150.74 98.265 151.86 98.405 153H93.71C93.53 151.5 93.355 150.075 93.185 148.725C93.015 147.375 92.86 146.11 92.72 144.93L92.09 139.86H91.76L89.9 145.305C89.45 146.645 88.995 147.975 88.535 149.295C88.085 150.605 87.665 151.84 87.275 153H84.005C83.725 152.25 83.42 151.445 83.09 150.585C82.77 149.725 82.44 148.85 82.1 147.96C81.76 147.06 81.425 146.18 81.095 145.32L79.025 139.86H78.695L78.08 144.9C77.94 146.09 77.785 147.365 77.615 148.725C77.455 150.075 77.285 151.5 77.105 153H72.5Z" fill="white"/>
<path d="M72.5 211C72.65 209.88 72.795 208.76 72.935 207.64C73.075 206.52 73.225 205.305 73.385 203.995L74.27 196.825C74.44 195.535 74.595 194.315 74.735 193.165C74.875 192.015 75.02 190.83 75.17 189.61H80.165C80.645 190.83 81.1 192 81.53 193.12C81.97 194.23 82.405 195.335 82.835 196.435L85.385 202.975H85.715L88.19 196.45C88.61 195.34 89.025 194.24 89.435 193.15C89.855 192.06 90.295 190.88 90.755 189.61H95.69C95.84 190.81 95.985 191.985 96.125 193.135C96.275 194.285 96.435 195.52 96.605 196.84L97.52 204.04C97.68 205.34 97.83 206.54 97.97 207.64C98.12 208.74 98.265 209.86 98.405 211H93.71C93.53 209.5 93.355 208.075 93.185 206.725C93.015 205.375 92.86 204.11 92.72 202.93L92.09 197.86H91.76L89.9 203.305C89.45 204.645 88.995 205.975 88.535 207.295C88.085 208.605 87.665 209.84 87.275 211H84.005C83.725 210.25 83.42 209.445 83.09 208.585C82.77 207.725 82.44 206.85 82.1 205.96C81.76 205.06 81.425 204.18 81.095 203.32L79.025 197.86H78.695L78.08 202.9C77.94 204.09 77.785 205.365 77.615 206.725C77.455 208.075 77.285 209.5 77.105 211H72.5Z" fill="white"/>
<path d="M189.63 37C190.01 35.85 190.405 34.64 190.815 33.37C191.235 32.1 191.63 30.895 192 29.755L194.415 22.42C194.845 21.09 195.235 19.895 195.585 18.835C195.935 17.765 196.285 16.69 196.635 15.61H202.995C203.355 16.73 203.705 17.82 204.045 18.88C204.395 19.94 204.785 21.12 205.215 22.42L207.6 29.77C207.99 30.95 208.385 32.165 208.785 33.415C209.195 34.665 209.585 35.86 209.955 37H204.855C204.535 35.86 204.205 34.695 203.865 33.505C203.525 32.305 203.2 31.17 202.89 30.1L199.95 19.795H199.59L196.62 29.995C196.3 31.105 195.96 32.27 195.6 33.49C195.25 34.7 194.91 35.87 194.58 37H189.63ZM194.79 32.53L195.315 28.84H204.87L205.29 32.53H194.79Z" fill="white"/>
<path d="M193.115 95C193.115 93.85 193.115 92.735 193.115 91.655C193.115 90.575 193.115 89.365 193.115 88.025V80.765C193.115 79.385 193.115 78.14 193.115 77.03C193.115 75.92 193.115 74.78 193.115 73.61H198.05C198.05 74.78 198.05 75.92 198.05 77.03C198.05 78.14 198.05 79.385 198.05 80.765V87.23C198.05 88.57 198.05 89.78 198.05 90.86C198.05 91.94 198.05 93.055 198.05 94.205L196.34 90.695H200.525C201.565 90.695 202.475 90.695 203.255 90.695C204.045 90.695 204.775 90.695 205.445 90.695C206.125 90.695 206.82 90.695 207.53 90.695V95H193.115Z" fill="white"/>
<path d="M201.42 153.405C199.68 153.405 198.115 153.14 196.725 152.61C195.335 152.08 194.145 151.325 193.155 150.345C192.175 149.355 191.425 148.185 190.905 146.835C190.385 145.475 190.125 143.97 190.125 142.32C190.125 140.18 190.56 138.27 191.43 136.59C192.3 134.9 193.55 133.575 195.18 132.615C196.81 131.655 198.76 131.175 201.03 131.175C201.72 131.175 202.4 131.22 203.07 131.31C203.75 131.4 204.4 131.52 205.02 131.67C205.64 131.82 206.215 131.995 206.745 132.195C207.285 132.385 207.765 132.59 208.185 132.81L207.81 137.4C207.03 136.91 206.28 136.52 205.56 136.23C204.84 135.93 204.145 135.715 203.475 135.585C202.815 135.445 202.185 135.375 201.585 135.375C200.365 135.375 199.28 135.645 198.33 136.185C197.38 136.715 196.63 137.5 196.08 138.54C195.54 139.57 195.27 140.83 195.27 142.32C195.27 143.27 195.41 144.17 195.69 145.02C195.97 145.86 196.39 146.605 196.95 147.255C197.52 147.905 198.23 148.415 199.08 148.785C199.93 149.155 200.925 149.34 202.065 149.34C202.535 149.34 203.005 149.31 203.475 149.25C203.955 149.18 204.435 149.075 204.915 148.935C205.395 148.795 205.875 148.605 206.355 148.365C206.835 148.115 207.315 147.815 207.795 147.465L208.065 151.995C207.635 152.235 207.16 152.445 206.64 152.625C206.12 152.805 205.57 152.95 204.99 153.06C204.42 153.18 203.83 153.265 203.22 153.315C202.62 153.375 202.02 153.405 201.42 153.405Z" fill="white"/>
<path d="M192.7 215.875V212.245C193.73 212.245 194.725 212.245 195.685 212.245C196.645 212.245 197.55 212.245 198.4 212.245H200.5C201.34 212.245 202.24 212.245 203.2 212.245C204.17 212.245 205.165 212.245 206.185 212.245V215.875C205.165 215.875 204.17 215.875 203.2 215.875C202.24 215.875 201.34 215.875 200.5 215.875H198.4C197.55 215.875 196.645 215.875 195.685 215.875C194.725 215.875 193.73 215.875 192.7 215.875Z" fill="white"/>
<path d="M243.5 37C243.65 35.88 243.795 34.76 243.935 33.64C244.075 32.52 244.225 31.305 244.385 29.995L245.27 22.825C245.44 21.535 245.595 20.315 245.735 19.165C245.875 18.015 246.02 16.83 246.17 15.61H251.165C251.645 16.83 252.1 18 252.53 19.12C252.97 20.23 253.405 21.335 253.835 22.435L256.385 28.975H256.715L259.19 22.45C259.61 21.34 260.025 20.24 260.435 19.15C260.855 18.06 261.295 16.88 261.755 15.61H266.69C266.84 16.81 266.985 17.985 267.125 19.135C267.275 20.285 267.435 21.52 267.605 22.84L268.52 30.04C268.68 31.34 268.83 32.54 268.97 33.64C269.12 34.74 269.265 35.86 269.405 37H264.71C264.53 35.5 264.355 34.075 264.185 32.725C264.015 31.375 263.86 30.11 263.72 28.93L263.09 23.86H262.76L260.9 29.305C260.45 30.645 259.995 31.975 259.535 33.295C259.085 34.605 258.665 35.84 258.275 37H255.005C254.725 36.25 254.42 35.445 254.09 34.585C253.77 33.725 253.44 32.85 253.1 31.96C252.76 31.06 252.425 30.18 252.095 29.32L250.025 23.86H249.695L249.08 28.9C248.94 30.09 248.785 31.365 248.615 32.725C248.455 34.075 248.285 35.5 248.105 37H243.5Z" fill="white"/>
<path d="M250.1 95C250.1 93.85 250.1 92.735 250.1 91.655C250.1 90.575 250.1 89.365 250.1 88.025V80.765C250.1 79.385 250.1 78.14 250.1 77.03C250.1 75.92 250.1 74.78 250.1 73.61H264.305V77.645C263.385 77.645 262.395 77.645 261.335 77.645C260.285 77.645 259.045 77.645 257.615 77.645H252.575L254.93 74.39C254.93 75.56 254.93 76.7 254.93 77.81C254.93 78.92 254.93 80.165 254.93 81.545V87.245C254.93 88.575 254.93 89.785 254.93 90.875C254.93 91.955 254.93 93.07 254.93 94.22L252.89 90.965H257.975C259.165 90.965 260.29 90.965 261.35 90.965C262.42 90.965 263.45 90.965 264.44 90.965V95H250.1ZM253.805 86.09V82.34H257.72C259.04 82.34 260.17 82.34 261.11 82.34C262.05 82.34 262.955 82.34 263.825 82.34V86.09C262.905 86.09 261.975 86.09 261.035 86.09C260.095 86.09 258.99 86.09 257.72 86.09H253.805Z" fill="white"/>
<path d="M260.43 153C259.77 152.05 259.145 151.16 258.555 150.33C257.975 149.49 257.405 148.665 256.845 147.855L254.025 143.82H252.645V139.95H253.965L256.485 136.65C257.085 135.87 257.68 135.095 258.27 134.325C258.86 133.545 259.545 132.64 260.325 131.61H266.01C265.08 132.74 264.17 133.85 263.28 134.94C262.4 136.03 261.515 137.13 260.625 138.24L257.235 142.425L257.145 140.25L260.91 145.455C261.49 146.255 262.11 147.115 262.77 148.035C263.44 148.955 264.09 149.85 264.72 150.72C265.35 151.59 265.905 152.35 266.385 153H260.43ZM248.115 153C248.115 151.85 248.115 150.735 248.115 149.655C248.115 148.575 248.115 147.365 248.115 146.025V138.765C248.115 137.385 248.115 136.14 248.115 135.03C248.115 133.92 248.115 132.78 248.115 131.61H253.035C253.035 132.78 253.035 133.92 253.035 135.03C253.035 136.14 253.035 137.385 253.035 138.765V146.025C253.035 147.365 253.035 148.575 253.035 149.655C253.035 150.735 253.035 151.85 253.035 153H248.115Z" fill="white"/>
<path d="M249.7 215.875V212.245C250.73 212.245 251.725 212.245 252.685 212.245C253.645 212.245 254.55 212.245 255.4 212.245H257.5C258.34 212.245 259.24 212.245 260.2 212.245C261.17 212.245 262.165 212.245 263.185 212.245V215.875C262.165 215.875 261.17 215.875 260.2 215.875C259.24 215.875 258.34 215.875 257.5 215.875H255.4C254.55 215.875 253.645 215.875 252.685 215.875C251.725 215.875 250.73 215.875 249.7 215.875Z" fill="white"/>
<defs>
<filter id="filter0_d_33_537" x="0" y="0" width="58" height="58" filterUnits="userSpaceOnUse" color-interpolation-filters="sRGB">
<feFlood flood-opacity="0" result="BackgroundImageFix"/>
<feColorMatrix in="SourceAlpha" type="matrix" values="0 0 0 0 0 0 0 0 0 0 0 0 0 0 0 0 0 0 127 0" result="hardAlpha"/>
<feOffset dy="4"/>
<feGaussianBlur stdDeviation="2"/>
<feComposite in2="hardAlpha" operator="out"/>
<feColorMatrix type="matrix" values="0 0 0 0 0 0 0 0 0 0 0 0 0 0 0 0 0 0 0.25 0"/>
<feBlend mode="normal" in2="BackgroundImageFix" result="effect1_dropShadow_33_537"/>
<feBlend mode="normal" in="SourceGraphic" in2="effect1_dropShadow_33_537" result="shape"/>
</filter>
<filter id="filter1_d_33_537" x="0" y="58" width="58" height="58" filterUnits="userSpaceOnUse" color-interpolation-filters="sRGB">
<feFlood flood-opacity="0" result="BackgroundImageFix"/>
<feColorMatrix in="SourceAlpha" type="matrix" values="0 0 0 0 0 0 0 0 0 0 0 0 0 0 0 0 0 0 127 0" result="hardAlpha"/>
<feOffset dy="4"/>
<feGaussianBlur stdDeviation="2"/>
<feComposite in2="hardAlpha" operator="out"/>
<feColorMatrix type="matrix" values="0 0 0 0 0 0 0 0 0 0 0 0 0 0 0 0 0 0 0.25 0"/>
<feBlend mode="normal" in2="BackgroundImageFix" result="effect1_dropShadow_33_537"/>
<feBlend mode="normal" in="SourceGraphic" in2="effect1_dropShadow_33_537" result="shape"/>
</filter>
<filter id="filter2_d_33_537" x="0" y="116" width="58" height="58" filterUnits="userSpaceOnUse" color-interpolation-filters="sRGB">
<feFlood flood-opacity="0" result="BackgroundImageFix"/>
<feColorMatrix in="SourceAlpha" type="matrix" values="0 0 0 0 0 0 0 0 0 0 0 0 0 0 0 0 0 0 127 0" result="hardAlpha"/>
<feOffset dy="4"/>
<feGaussianBlur stdDeviation="2"/>
<feComposite in2="hardAlpha" operator="out"/>
<feColorMatrix type="matrix" values="0 0 0 0 0 0 0 0 0 0 0 0 0 0 0 0 0 0 0.25 0"/>
<feBlend mode="normal" in2="BackgroundImageFix" result="effect1_dropShadow_33_537"/>
<feBlend mode="normal" in="SourceGraphic" in2="effect1_dropShadow_33_537" result="shape"/>
</filter>
<filter id="filter3_d_33_537" x="0" y="174" width="58" height="58" filterUnits="userSpaceOnUse" color-interpolation-filters="sRGB">
<feFlood flood-opacity="0" result="BackgroundImageFix"/>
<feColorMatrix in="SourceAlpha" type="matrix" values="0 0 0 0 0 0 0 0 0 0 0 0 0 0 0 0 0 0 127 0" result="hardAlpha"/>
<feOffset dy="4"/>
<feGaussianBlur stdDeviation="2"/>
<feComposite in2="hardAlpha" operator="out"/>
<feColorMatrix type="matrix" values="0 0 0 0 0 0 0 0 0 0 0 0 0 0 0 0 0 0 0.25 0"/>
<feBlend mode="normal" in2="BackgroundImageFix" result="effect1_dropShadow_33_537"/>
<feBlend mode="normal" in="SourceGraphic" in2="effect1_dropShadow_33_537" result="shape"/>
</filter>
<filter id="filter4_d_33_537" x="114" y="0" width="58" height="58" filterUnits="userSpaceOnUse" color-interpolation-filters="sRGB">
<feFlood flood-opacity="0" result="BackgroundImageFix"/>
<feColorMatrix in="SourceAlpha" type="matrix" values="0 0 0 0 0 0 0 0 0 0 0 0 0 0 0 0 0 0 127 0" result="hardAlpha"/>
<feOffset dy="4"/>
<feGaussianBlur stdDeviation="2"/>
<feComposite in2="hardAlpha" operator="out"/>
<feColorMatrix type="matrix" values="0 0 0 0 0 0 0 0 0 0 0 0 0 0 0 0 0 0 0.25 0"/>
<feBlend mode="normal" in2="BackgroundImageFix" result="effect1_dropShadow_33_537"/>
<feBlend mode="normal" in="SourceGraphic" in2="effect1_dropShadow_33_537" result="shape"/>
</filter>
<filter id="filter5_d_33_537" x="114" y="58" width="58" height="58" filterUnits="userSpaceOnUse" color-interpolation-filters="sRGB">
<feFlood flood-opacity="0" result="BackgroundImageFix"/>
<feColorMatrix in="SourceAlpha" type="matrix" values="0 0 0 0 0 0 0 0 0 0 0 0 0 0 0 0 0 0 127 0" result="hardAlpha"/>
<feOffset dy="4"/>
<feGaussianBlur stdDeviation="2"/>
<feComposite in2="hardAlpha" operator="out"/>
<feColorMatrix type="matrix" values="0 0 0 0 0 0 0 0 0 0 0 0 0 0 0 0 0 0 0.25 0"/>
<feBlend mode="normal" in2="BackgroundImageFix" result="effect1_dropShadow_33_537"/>
<feBlend mode="normal" in="SourceGraphic" in2="effect1_dropShadow_33_537" result="shape"/>
</filter>
<filter id="filter6_d_33_537" x="114" y="116" width="58" height="58" filterUnits="userSpaceOnUse" color-interpolation-filters="sRGB">
<feFlood flood-opacity="0" result="BackgroundImageFix"/>
<feColorMatrix in="SourceAlpha" type="matrix" values="0 0 0 0 0 0 0 0 0 0 0 0 0 0 0 0 0 0 127 0" result="hardAlpha"/>
<feOffset dy="4"/>
<feGaussianBlur stdDeviation="2"/>
<feComposite in2="hardAlpha" operator="out"/>
<feColorMatrix type="matrix" values="0 0 0 0 0 0 0 0 0 0 0 0 0 0 0 0 0 0 0.25 0"/>
<feBlend mode="normal" in2="BackgroundImageFix" result="effect1_dropShadow_33_537"/>
<feBlend mode="normal" in="SourceGraphic" in2="effect1_dropShadow_33_537" result="shape"/>
</filter>
<filter id="filter7_d_33_537" x="114" y="174" width="58" height="58" filterUnits="userSpaceOnUse" color-interpolation-filters="sRGB">
<feFlood flood-opacity="0" result="BackgroundImageFix"/>
<feColorMatrix in="SourceAlpha" type="matrix" values="0 0 0 0 0 0 0 0 0 0 0 0 0 0 0 0 0 0 127 0" result="hardAlpha"/>
<feOffset dy="4"/>
<feGaussianBlur stdDeviation="2"/>
<feComposite in2="hardAlpha" operator="out"/>
<feColorMatrix type="matrix" values="0 0 0 0 0 0 0 0 0 0 0 0 0 0 0 0 0 0 0.25 0"/>
<feBlend mode="normal" in2="BackgroundImageFix" result="effect1_dropShadow_33_537"/>
<feBlend mode="normal" in="SourceGraphic" in2="effect1_dropShadow_33_537" result="shape"/>
</filter>
<filter id="filter8_d_33_537" x="57" y="0" width="58" height="58" filterUnits="userSpaceOnUse" color-interpolation-filters="sRGB">
<feFlood flood-opacity="0" result="BackgroundImageFix"/>
<feColorMatrix in="SourceAlpha" type="matrix" values="0 0 0 0 0 0 0 0 0 0 0 0 0 0 0 0 0 0 127 0" result="hardAlpha"/>
<feOffset dy="4"/>
<feGaussianBlur stdDeviation="2"/>
<feComposite in2="hardAlpha" operator="out"/>
<feColorMatrix type="matrix" values="0 0 0 0 0 0 0 0 0 0 0 0 0 0 0 0 0 0 0.25 0"/>
<feBlend mode="normal" in2="BackgroundImageFix" result="effect1_dropShadow_33_537"/>
<feBlend mode="normal" in="SourceGraphic" in2="effect1_dropShadow_33_537" result="shape"/>
</filter>
<filter id="filter9_d_33_537" x="57" y="58" width="58" height="58" filterUnits="userSpaceOnUse" color-interpolation-filters="sRGB">
<feFlood flood-opacity="0" result="BackgroundImageFix"/>
<feColorMatrix in="SourceAlpha" type="matrix" values="0 0 0 0 0 0 0 0 0 0 0 0 0 0 0 0 0 0 127 0" result="hardAlpha"/>
<feOffset dy="4"/>
<feGaussianBlur stdDeviation="2"/>
<feComposite in2="hardAlpha" operator="out"/>
<feColorMatrix type="matrix" values="0 0 0 0 0 0 0 0 0 0 0 0 0 0 0 0 0 0 0.25 0"/>
<feBlend mode="normal" in2="BackgroundImageFix" result="effect1_dropShadow_33_537"/>
<feBlend mode="normal" in="SourceGraphic" in2="effect1_dropShadow_33_537" result="shape"/>
</filter>
<filter id="filter10_d_33_537" x="57" y="116" width="58" height="58" filterUnits="userSpaceOnUse" color-interpolation-filters="sRGB">
<feFlood flood-opacity="0" result="BackgroundImageFix"/>
<feColorMatrix in="SourceAlpha" type="matrix" values="0 0 0 0 0 0 0 0 0 0 0 0 0 0 0 0 0 0 127 0" result="hardAlpha"/>
<feOffset dy="4"/>
<feGaussianBlur stdDeviation="2"/>
<feComposite in2="hardAlpha" operator="out"/>
<feColorMatrix type="matrix" values="0 0 0 0 0 0 0 0 0 0 0 0 0 0 0 0 0 0 0.25 0"/>
<feBlend mode="normal" in2="BackgroundImageFix" result="effect1_dropShadow_33_537"/>
<feBlend mode="normal" in="SourceGraphic" in2="effect1_dropShadow_33_537" result="shape"/>
</filter>
<filter id="filter11_d_33_537" x="57" y="174" width="58" height="58" filterUnits="userSpaceOnUse" color-interpolation-filters="sRGB">
<feFlood flood-opacity="0" result="BackgroundImageFix"/>
<feColorMatrix in="SourceAlpha" type="matrix" values="0 0 0 0 0 0 0 0 0 0 0 0 0 0 0 0 0 0 127 0" result="hardAlpha"/>
<feOffset dy="4"/>
<feGaussianBlur stdDeviation="2"/>
<feComposite in2="hardAlpha" operator="out"/>
<feColorMatrix type="matrix" values="0 0 0 0 0 0 0 0 0 0 0 0 0 0 0 0 0 0 0.25 0"/>
<feBlend mode="normal" in2="BackgroundImageFix" result="effect1_dropShadow_33_537"/>
<feBlend mode="normal" in="SourceGraphic" in2="effect1_dropShadow_33_537" result="shape"/>
</filter>
<filter id="filter12_d_33_537" x="171" y="0" width="58" height="58" filterUnits="userSpaceOnUse" color-interpolation-filters="sRGB">
<feFlood flood-opacity="0" result="BackgroundImageFix"/>
<feColorMatrix in="SourceAlpha" type="matrix" values="0 0 0 0 0 0 0 0 0 0 0 0 0 0 0 0 0 0 127 0" result="hardAlpha"/>
<feOffset dy="4"/>
<feGaussianBlur stdDeviation="2"/>
<feComposite in2="hardAlpha" operator="out"/>
<feColorMatrix type="matrix" values="0 0 0 0 0 0 0 0 0 0 0 0 0 0 0 0 0 0 0.25 0"/>
<feBlend mode="normal" in2="BackgroundImageFix" result="effect1_dropShadow_33_537"/>
<feBlend mode="normal" in="SourceGraphic" in2="effect1_dropShadow_33_537" result="shape"/>
</filter>
<filter id="filter13_d_33_537" x="171" y="58" width="58" height="58" filterUnits="userSpaceOnUse" color-interpolation-filters="sRGB">
<feFlood flood-opacity="0" result="BackgroundImageFix"/>
<feColorMatrix in="SourceAlpha" type="matrix" values="0 0 0 0 0 0 0 0 0 0 0 0 0 0 0 0 0 0 127 0" result="hardAlpha"/>
<feOffset dy="4"/>
<feGaussianBlur stdDeviation="2"/>
<feComposite in2="hardAlpha" operator="out"/>
<feColorMatrix type="matrix" values="0 0 0 0 0 0 0 0 0 0 0 0 0 0 0 0 0 0 0.25 0"/>
<feBlend mode="normal" in2="BackgroundImageFix" result="effect1_dropShadow_33_537"/>
<feBlend mode="normal" in="SourceGraphic" in2="effect1_dropShadow_33_537" result="shape"/>
</filter>
<filter id="filter14_d_33_537" x="171" y="116" width="58" height="58" filterUnits="userSpaceOnUse" color-interpolation-filters="sRGB">
<feFlood flood-opacity="0" result="BackgroundImageFix"/>
<feColorMatrix in="SourceAlpha" type="matrix" values="0 0 0 0 0 0 0 0 0 0 0 0 0 0 0 0 0 0 127 0" result="hardAlpha"/>
<feOffset dy="4"/>
<feGaussianBlur stdDeviation="2"/>
<feComposite in2="hardAlpha" operator="out"/>
<feColorMatrix type="matrix" values="0 0 0 0 0 0 0 0 0 0 0 0 0 0 0 0 0 0 0.25 0"/>
<feBlend mode="normal" in2="BackgroundImageFix" result="effect1_dropShadow_33_537"/>
<feBlend mode="normal" in="SourceGraphic" in2="effect1_dropShadow_33_537" result="shape"/>
</filter>
<filter id="filter15_d_33_537" x="171" y="174" width="58" height="58" filterUnits="userSpaceOnUse" color-interpolation-filters="sRGB">
<feFlood flood-opacity="0" result="BackgroundImageFix"/>
<feColorMatrix in="SourceAlpha" type="matrix" values="0 0 0 0 0 0 0 0 0 0 0 0 0 0 0 0 0 0 127 0" result="hardAlpha"/>
<feOffset dy="4"/>
<feGaussianBlur stdDeviation="2"/>
<feComposite in2="hardAlpha" operator="out"/>
<feColorMatrix type="matrix" values="0 0 0 0 0 0 0 0 0 0 0 0 0 0 0 0 0 0 0.25 0"/>
<feBlend mode="normal" in2="BackgroundImageFix" result="effect1_dropShadow_33_537"/>
<feBlend mode="normal" in="SourceGraphic" in2="effect1_dropShadow_33_537" result="shape"/>
</filter>
<filter id="filter16_d_33_537" x="228" y="0" width="58" height="58" filterUnits="userSpaceOnUse" color-interpolation-filters="sRGB">
<feFlood flood-opacity="0" result="BackgroundImageFix"/>
<feColorMatrix in="SourceAlpha" type="matrix" values="0 0 0 0 0 0 0 0 0 0 0 0 0 0 0 0 0 0 127 0" result="hardAlpha"/>
<feOffset dy="4"/>
<feGaussianBlur stdDeviation="2"/>
<feComposite in2="hardAlpha" operator="out"/>
<feColorMatrix type="matrix" values="0 0 0 0 0 0 0 0 0 0 0 0 0 0 0 0 0 0 0.25 0"/>
<feBlend mode="normal" in2="BackgroundImageFix" result="effect1_dropShadow_33_537"/>
<feBlend mode="normal" in="SourceGraphic" in2="effect1_dropShadow_33_537" result="shape"/>
</filter>
<filter id="filter17_d_33_537" x="228" y="58" width="58" height="58" filterUnits="userSpaceOnUse" color-interpolation-filters="sRGB">
<feFlood flood-opacity="0" result="BackgroundImageFix"/>
<feColorMatrix in="SourceAlpha" type="matrix" values="0 0 0 0 0 0 0 0 0 0 0 0 0 0 0 0 0 0 127 0" result="hardAlpha"/>
<feOffset dy="4"/>
<feGaussianBlur stdDeviation="2"/>
<feComposite in2="hardAlpha" operator="out"/>
<feColorMatrix type="matrix" values="0 0 0 0 0 0 0 0 0 0 0 0 0 0 0 0 0 0 0.25 0"/>
<feBlend mode="normal" in2="BackgroundImageFix" result="effect1_dropShadow_33_537"/>
<feBlend mode="normal" in="SourceGraphic" in2="effect1_dropShadow_33_537" result="shape"/>
</filter>
<filter id="filter18_d_33_537" x="228" y="116" width="58" height="58" filterUnits="userSpaceOnUse" color-interpolation-filters="sRGB">
<feFlood flood-opacity="0" result="BackgroundImageFix"/>
<feColorMatrix in="SourceAlpha" type="matrix" values="0 0 0 0 0 0 0 0 0 0 0 0 0 0 0 0 0 0 127 0" result="hardAlpha"/>
<feOffset dy="4"/>
<feGaussianBlur stdDeviation="2"/>
<feComposite in2="hardAlpha" operator="out"/>
<feColorMatrix type="matrix" values="0 0 0 0 0 0 0 0 0 0 0 0 0 0 0 0 0 0 0.25 0"/>
<feBlend mode="normal" in2="BackgroundImageFix" result="effect1_dropShadow_33_537"/>
<feBlend mode="normal" in="SourceGraphic" in2="effect1_dropShadow_33_537" result="shape"/>
</filter>
<filter id="filter19_d_33_537" x="228" y="174" width="58" height="58" filterUnits="userSpaceOnUse" color-interpolation-filters="sRGB">
<feFlood flood-opacity="0" result="BackgroundImageFix"/>
<feColorMatrix in="SourceAlpha" type="matrix" values="0 0 0 0 0 0 0 0 0 0 0 0 0 0 0 0 0 0 127 0" result="hardAlpha"/>
<feOffset dy="4"/>
<feGaussianBlur stdDeviation="2"/>
<feComposite in2="hardAlpha" operator="out"/>
<feColorMatrix type="matrix" values="0 0 0 0 0 0 0 0 0 0 0 0 0 0 0 0 0 0 0.25 0"/>
<feBlend mode="normal" in2="BackgroundImageFix" result="effect1_dropShadow_33_537"/>
<feBlend mode="normal" in="SourceGraphic" in2="effect1_dropShadow_33_537" result="shape"/>
</filter>
</defs>
</svg>
